<mxfile host="app.diagrams.net" modified="2022-09-01T05:55:59.024Z" agent="5.0 (Windows NT 10.0; Win64; x64) AppleWebKit/537.36 (KHTML, like Gecko) Chrome/104.0.0.0 Safari/537.36" etag="YbOZsBSj92F3nAG9gl5z" version="20.2.7" type="github">
  <diagram id="7oIH4jy8F8y5lydFxuAi" name="第 1 页">
    <mxGraphModel dx="2034" dy="641" grid="1" gridSize="10" guides="1" tooltips="1" connect="1" arrows="1" fold="1" page="1" pageScale="1" pageWidth="827" pageHeight="1169" math="0" shadow="0">
      <root>
        <mxCell id="0" />
        <mxCell id="1" parent="0" />
        <mxCell id="2sfyKtDVMwlXpg-KksxC-1" value="&lt;font style=&quot;font-size: 20px;&quot;&gt;read&lt;/font&gt;" style="rounded=1;whiteSpace=wrap;html=1;fillColor=#dae8fc;strokeColor=#6c8ebf;" vertex="1" parent="1">
          <mxGeometry x="110" y="100" width="120" height="60" as="geometry" />
        </mxCell>
        <mxCell id="2sfyKtDVMwlXpg-KksxC-2" value="未就绪" style="rounded=1;whiteSpace=wrap;html=1;fontSize=20;fillColor=#ffe6cc;strokeColor=#d79b00;" vertex="1" parent="1">
          <mxGeometry x="470" y="100" width="120" height="60" as="geometry" />
        </mxCell>
        <mxCell id="2sfyKtDVMwlXpg-KksxC-3" value="&lt;font style=&quot;font-size: 20px;&quot;&gt;read&lt;/font&gt;" style="rounded=1;whiteSpace=wrap;html=1;" vertex="1" parent="1">
          <mxGeometry x="110" y="200" width="120" height="60" as="geometry" />
        </mxCell>
        <mxCell id="2sfyKtDVMwlXpg-KksxC-4" value="未就绪" style="rounded=1;whiteSpace=wrap;html=1;fontSize=20;" vertex="1" parent="1">
          <mxGeometry x="470" y="200" width="120" height="60" as="geometry" />
        </mxCell>
        <mxCell id="2sfyKtDVMwlXpg-KksxC-5" value="&lt;font style=&quot;font-size: 20px;&quot;&gt;read&lt;/font&gt;" style="rounded=1;whiteSpace=wrap;html=1;" vertex="1" parent="1">
          <mxGeometry x="110" y="340" width="120" height="60" as="geometry" />
        </mxCell>
        <mxCell id="2sfyKtDVMwlXpg-KksxC-7" value="已就绪" style="rounded=1;whiteSpace=wrap;html=1;fontSize=20;" vertex="1" parent="1">
          <mxGeometry x="470" y="340" width="120" height="60" as="geometry" />
        </mxCell>
        <mxCell id="2sfyKtDVMwlXpg-KksxC-8" value="" style="endArrow=classic;html=1;rounded=0;fontSize=20;exitX=1;exitY=0.25;exitDx=0;exitDy=0;entryX=0;entryY=0.25;entryDx=0;entryDy=0;" edge="1" parent="1" source="2sfyKtDVMwlXpg-KksxC-1" target="2sfyKtDVMwlXpg-KksxC-2">
          <mxGeometry width="50" height="50" relative="1" as="geometry">
            <mxPoint x="390" y="250" as="sourcePoint" />
            <mxPoint x="440" y="200" as="targetPoint" />
          </mxGeometry>
        </mxCell>
        <mxCell id="2sfyKtDVMwlXpg-KksxC-9" value="&lt;font style=&quot;font-size: 14px;&quot;&gt;系统调用 nonblock&lt;/font&gt;" style="edgeLabel;html=1;align=center;verticalAlign=middle;resizable=0;points=[];fontSize=20;" vertex="1" connectable="0" parent="2sfyKtDVMwlXpg-KksxC-8">
          <mxGeometry x="-0.3684" relative="1" as="geometry">
            <mxPoint x="56" y="-2" as="offset" />
          </mxGeometry>
        </mxCell>
        <mxCell id="2sfyKtDVMwlXpg-KksxC-10" value="" style="endArrow=classic;html=1;rounded=0;fontSize=20;exitX=0;exitY=0.75;exitDx=0;exitDy=0;entryX=1;entryY=0.75;entryDx=0;entryDy=0;" edge="1" parent="1" source="2sfyKtDVMwlXpg-KksxC-2" target="2sfyKtDVMwlXpg-KksxC-1">
          <mxGeometry width="50" height="50" relative="1" as="geometry">
            <mxPoint x="390" y="250" as="sourcePoint" />
            <mxPoint x="240" y="145" as="targetPoint" />
          </mxGeometry>
        </mxCell>
        <mxCell id="2sfyKtDVMwlXpg-KksxC-11" value="&lt;font style=&quot;font-size: 13px;&quot;&gt;EAGIN&lt;/font&gt;" style="edgeLabel;html=1;align=center;verticalAlign=middle;resizable=0;points=[];fontSize=20;" vertex="1" connectable="0" parent="2sfyKtDVMwlXpg-KksxC-10">
          <mxGeometry x="0.3394" y="2" relative="1" as="geometry">
            <mxPoint x="41" y="-4" as="offset" />
          </mxGeometry>
        </mxCell>
        <mxCell id="2sfyKtDVMwlXpg-KksxC-12" value="......." style="text;html=1;align=center;verticalAlign=middle;resizable=0;points=[];autosize=1;strokeColor=none;fillColor=none;fontSize=20;" vertex="1" parent="1">
          <mxGeometry x="140" y="270" width="60" height="40" as="geometry" />
        </mxCell>
        <mxCell id="2sfyKtDVMwlXpg-KksxC-13" value="........" style="text;html=1;align=center;verticalAlign=middle;resizable=0;points=[];autosize=1;strokeColor=none;fillColor=none;fontSize=20;" vertex="1" parent="1">
          <mxGeometry x="495" y="270" width="70" height="40" as="geometry" />
        </mxCell>
        <mxCell id="2sfyKtDVMwlXpg-KksxC-14" value="" style="endArrow=classic;html=1;rounded=0;fontSize=20;exitX=1;exitY=0.25;exitDx=0;exitDy=0;entryX=0;entryY=0.25;entryDx=0;entryDy=0;" edge="1" parent="1" source="2sfyKtDVMwlXpg-KksxC-3" target="2sfyKtDVMwlXpg-KksxC-4">
          <mxGeometry width="50" height="50" relative="1" as="geometry">
            <mxPoint x="380" y="250" as="sourcePoint" />
            <mxPoint x="430" y="200" as="targetPoint" />
          </mxGeometry>
        </mxCell>
        <mxCell id="2sfyKtDVMwlXpg-KksxC-15" value="" style="endArrow=classic;html=1;rounded=0;fontSize=20;exitX=-0.008;exitY=0.633;exitDx=0;exitDy=0;exitPerimeter=0;" edge="1" parent="1" source="2sfyKtDVMwlXpg-KksxC-4">
          <mxGeometry width="50" height="50" relative="1" as="geometry">
            <mxPoint x="550" y="240" as="sourcePoint" />
            <mxPoint x="230" y="238" as="targetPoint" />
          </mxGeometry>
        </mxCell>
        <mxCell id="2sfyKtDVMwlXpg-KksxC-16" value="" style="shape=curlyBracket;whiteSpace=wrap;html=1;rounded=1;flipH=1;fontSize=20;" vertex="1" parent="1">
          <mxGeometry x="620" y="120" width="10" height="180" as="geometry" />
        </mxCell>
        <mxCell id="2sfyKtDVMwlXpg-KksxC-17" value="拷贝到内核缓冲区" style="text;html=1;align=center;verticalAlign=middle;resizable=0;points=[];autosize=1;strokeColor=none;fillColor=none;fontSize=20;" vertex="1" parent="1">
          <mxGeometry x="640" y="190" width="180" height="40" as="geometry" />
        </mxCell>
        <mxCell id="2sfyKtDVMwlXpg-KksxC-22" value="" style="shape=curlyBracket;whiteSpace=wrap;html=1;rounded=1;fontSize=13;" vertex="1" parent="1">
          <mxGeometry x="50" y="120" width="20" height="180" as="geometry" />
        </mxCell>
        <mxCell id="2sfyKtDVMwlXpg-KksxC-23" value="&lt;font style=&quot;font-size: 20px;&quot;&gt;仅将这一部分变成非阻塞&lt;/font&gt;" style="text;html=1;align=center;verticalAlign=middle;resizable=0;points=[];autosize=1;strokeColor=none;fillColor=none;fontSize=13;" vertex="1" parent="1">
          <mxGeometry x="-190" y="190" width="240" height="40" as="geometry" />
        </mxCell>
        <mxCell id="2sfyKtDVMwlXpg-KksxC-24" value="" style="endArrow=classic;html=1;rounded=0;fontSize=20;exitX=1;exitY=0.5;exitDx=0;exitDy=0;entryX=0;entryY=0.5;entryDx=0;entryDy=0;" edge="1" parent="1" source="2sfyKtDVMwlXpg-KksxC-5" target="2sfyKtDVMwlXpg-KksxC-7">
          <mxGeometry relative="1" as="geometry">
            <mxPoint x="270" y="370" as="sourcePoint" />
            <mxPoint x="370" y="370" as="targetPoint" />
          </mxGeometry>
        </mxCell>
        <mxCell id="2sfyKtDVMwlXpg-KksxC-25" value="&lt;font style=&quot;font-size: 13px;&quot;&gt;系统调用 block&lt;/font&gt;" style="edgeLabel;resizable=0;html=1;align=center;verticalAlign=middle;fontSize=20;" connectable="0" vertex="1" parent="2sfyKtDVMwlXpg-KksxC-24">
          <mxGeometry relative="1" as="geometry">
            <mxPoint y="-2" as="offset" />
          </mxGeometry>
        </mxCell>
        <mxCell id="2sfyKtDVMwlXpg-KksxC-26" value="&lt;font style=&quot;font-size: 20px;&quot;&gt;read&lt;/font&gt;" style="rounded=1;whiteSpace=wrap;html=1;" vertex="1" parent="1">
          <mxGeometry x="110" y="520" width="120" height="60" as="geometry" />
        </mxCell>
        <mxCell id="2sfyKtDVMwlXpg-KksxC-27" value="拷贝结束" style="rounded=1;whiteSpace=wrap;html=1;fontSize=20;" vertex="1" parent="1">
          <mxGeometry x="470" y="520" width="120" height="60" as="geometry" />
        </mxCell>
        <mxCell id="2sfyKtDVMwlXpg-KksxC-28" value="" style="endArrow=classic;html=1;rounded=0;fontSize=13;exitX=0;exitY=0.5;exitDx=0;exitDy=0;entryX=1;entryY=0.5;entryDx=0;entryDy=0;" edge="1" parent="1" source="2sfyKtDVMwlXpg-KksxC-27" target="2sfyKtDVMwlXpg-KksxC-26">
          <mxGeometry width="50" height="50" relative="1" as="geometry">
            <mxPoint x="270" y="390" as="sourcePoint" />
            <mxPoint x="320" y="340" as="targetPoint" />
          </mxGeometry>
        </mxCell>
        <mxCell id="2sfyKtDVMwlXpg-KksxC-29" value="返回" style="edgeLabel;html=1;align=center;verticalAlign=middle;resizable=0;points=[];fontSize=13;" vertex="1" connectable="0" parent="2sfyKtDVMwlXpg-KksxC-28">
          <mxGeometry x="-0.5861" y="1" relative="1" as="geometry">
            <mxPoint x="-70" y="-1" as="offset" />
          </mxGeometry>
        </mxCell>
        <mxCell id="2sfyKtDVMwlXpg-KksxC-30" value="" style="endArrow=classic;html=1;rounded=0;fontSize=13;exitX=0.5;exitY=1;exitDx=0;exitDy=0;entryX=0.5;entryY=0;entryDx=0;entryDy=0;" edge="1" parent="1" source="2sfyKtDVMwlXpg-KksxC-7" target="2sfyKtDVMwlXpg-KksxC-27">
          <mxGeometry width="50" height="50" relative="1" as="geometry">
            <mxPoint x="270" y="390" as="sourcePoint" />
            <mxPoint x="320" y="340" as="targetPoint" />
          </mxGeometry>
        </mxCell>
        <mxCell id="2sfyKtDVMwlXpg-KksxC-31" value="" style="shape=curlyBracket;whiteSpace=wrap;html=1;rounded=1;flipH=1;fontSize=13;" vertex="1" parent="1">
          <mxGeometry x="620" y="350" width="20" height="200" as="geometry" />
        </mxCell>
        <mxCell id="2sfyKtDVMwlXpg-KksxC-33" value="&lt;font style=&quot;font-size: 20px;&quot;&gt;内核缓冲区拷贝到用户缓冲区&lt;/font&gt;" style="text;html=1;align=center;verticalAlign=middle;resizable=0;points=[];autosize=1;strokeColor=none;fillColor=none;fontSize=13;" vertex="1" parent="1">
          <mxGeometry x="640" y="430" width="280" height="40" as="geometry" />
        </mxCell>
      </root>
    </mxGraphModel>
  </diagram>
</mxfile>
